<svg width="182" height="194" viewBox="0 0 182 194" fill="none" xmlns="http://www.w3.org/2000/svg">
<mask id="mask0_43_270" style="mask-type:luminance" maskUnits="userSpaceOnUse" x="0" y="0" width="182" height="179">
<path d="M0 0H181.333V178.667H0V0Z" fill="white"/>
</mask>
<g mask="url(#mask0_43_270)">
<mask id="mask1_43_270" style="mask-type:luminance" maskUnits="userSpaceOnUse" x="-12" y="-21" width="196" height="204">
<path d="M-11.2241 31.7865L127.838 -20.0156L183.812 130.25L44.7498 182.052L-11.2241 31.7865Z" fill="white"/>
</mask>
<g mask="url(#mask1_43_270)">
<mask id="mask2_43_270" style="mask-type:luminance" maskUnits="userSpaceOnUse" x="-12" y="-21" width="196" height="204">
<path d="M-11.2241 31.7865L127.838 -20.0156L183.812 130.25L44.7498 182.052L-11.2241 31.7865Z" fill="white"/>
</mask>
<g mask="url(#mask2_43_270)">
<mask id="mask3_43_270" style="mask-type:luminance" maskUnits="userSpaceOnUse" x="-12" y="-21" width="196" height="204">
<path d="M-11.2241 31.7865L127.838 -20.0156L183.812 130.25L44.7498 182.052L-11.2241 31.7865Z" fill="white"/>
</mask>
<g mask="url(#mask3_43_270)">
<path d="M130.448 0.604156L94.0832 14.1458C97.8019 17.5989 100.995 21.8281 103.39 26.7031C105.635 26.8594 107.703 28.276 108.536 30.526C109.401 32.8437 108.708 35.3594 106.989 36.9427C106.437 37.4479 105.786 37.8646 105.042 38.1406C104.125 38.4792 103.187 38.5781 102.276 38.4739C100.135 38.2239 98.2134 36.8229 97.4113 34.6667C96.6873 32.7239 97.0623 30.651 98.2186 29.0885C95.6717 23.9583 92.1353 19.6562 88.0207 16.4062L42.7707 33.2604C41.7811 38.4167 41.9269 43.9948 43.3592 49.5469C45.2342 49.9792 46.8592 51.2969 47.578 53.2292C48.38 55.3802 47.8436 57.7031 46.3905 59.2917C45.7707 59.9635 44.9946 60.5052 44.0832 60.8489C43.3384 61.125 42.5728 61.2396 41.828 61.2187C39.4894 61.1458 37.3175 59.6927 36.4582 57.375C35.6144 55.1146 36.255 52.6771 37.8748 51.0885C36.4998 45.8437 36.1457 40.5625 36.6978 35.5208L0.291504 49.0833L41.1873 172.5C43.0155 177.401 48.4842 179.896 53.4061 178.062L174.651 132.901C179.573 131.062 182.083 125.599 180.255 120.698L130.448 0.604156Z" fill="white"/>
</g>
</g>
</g>
</g>
<mask id="mask4_43_270" style="mask-type:luminance" maskUnits="userSpaceOnUse" x="36" y="4" width="70" height="54">
<path d="M36 4H105.333V57.3333H36V4Z" fill="white"/>
</mask>
<g mask="url(#mask4_43_270)">
<mask id="mask5_43_270" style="mask-type:luminance" maskUnits="userSpaceOnUse" x="-12" y="-21" width="196" height="204">
<path d="M-11.2241 31.7865L127.838 -20.0156L183.812 130.25L44.7498 182.052L-11.2241 31.7865Z" fill="white"/>
</mask>
<g mask="url(#mask5_43_270)">
<mask id="mask6_43_270" style="mask-type:luminance" maskUnits="userSpaceOnUse" x="-12" y="-21" width="196" height="204">
<path d="M-11.2241 31.7865L127.838 -20.0156L183.812 130.25L44.7498 182.052L-11.2241 31.7865Z" fill="white"/>
</mask>
<g mask="url(#mask6_43_270)">
<mask id="mask7_43_270" style="mask-type:luminance" maskUnits="userSpaceOnUse" x="-12" y="-21" width="196" height="204">
<path d="M-11.2241 31.7865L127.838 -20.0156L183.812 130.25L44.7498 182.052L-11.2241 31.7865Z" fill="white"/>
</mask>
<g mask="url(#mask7_43_270)">
<path d="M39.9059 55.0573L39.9528 55.151C40.3955 56.1719 41.557 56.6719 42.5934 56.2812C43.6351 55.8958 44.1924 54.7604 43.8591 53.6979L43.7809 53.4531C37.2393 35.5208 44.4997 16.2969 60.057 10.5C75.6351 4.69791 93.7497 14.5364 100.5 32.4427L100.567 32.5729C101.005 33.5937 102.166 34.0885 103.208 33.7031C104.25 33.3125 104.807 32.1823 104.474 31.1146L104.422 30.9531C96.8278 10.901 76.2966 -0.0104279 58.5934 6.58332C40.8747 13.1823 32.4893 34.9114 39.8903 55.0208L39.9059 55.0573Z" fill="white"/>
</g>
</g>
</g>
</g>
<mask id="mask8_43_270" style="mask-type:luminance" maskUnits="userSpaceOnUse" x="32" y="69" width="126" height="125">
<path d="M32 69.3333H157.068V193.828H32V69.3333Z" fill="white"/>
</mask>
<g mask="url(#mask8_43_270)">
<path d="M154.839 105.328C148.266 94.8542 141.719 84.3698 135.177 73.875C134.307 72.5729 133.641 71.0104 132.24 70.1823C131.083 69.4792 129.661 69.6198 128.365 69.5938C122.984 69.6354 117.599 69.5677 112.214 69.6198C109.844 69.5469 107.755 71.6823 107.828 74.0521C107.823 76.6354 106.656 79.25 104.401 80.625C100.682 82.9219 96.099 83.1302 91.8646 82.8281C88.4792 82.4844 84.7135 81.625 82.5625 78.75C81.3646 77.276 81.2187 75.3177 81.0677 73.5052C80.9323 71.1042 78.5104 69.3542 76.1875 69.6094C70.1094 69.6719 64.0208 69.4844 57.9479 69.7031C56.5521 69.901 55.4583 70.9167 54.7656 72.0885C47.5677 83.5938 40.3958 95.125 33.1719 106.62C31.5625 108.615 31.8802 111.901 34.1823 113.234C40.8594 117.318 47.6094 121.292 54.3021 125.349C54.6667 126.536 54.4323 127.813 54.4948 129.042C54.4896 149.234 54.474 169.427 54.5052 189.615C54.4323 191.958 56.5469 194.078 58.8958 194C82.6146 194.031 106.344 194.031 130.063 194C132.406 194.078 134.526 191.958 134.453 189.615C134.484 169.427 134.469 149.234 134.464 129.036C134.505 127.813 134.318 126.542 134.651 125.354C141.125 121.458 147.609 117.563 154.089 113.677C155.422 112.953 156.505 111.677 156.651 110.125C156.953 108.302 155.729 106.781 154.839 105.328Z" fill="#0D0057"/>
</g>
<mask id="mask9_43_270" style="mask-type:luminance" maskUnits="userSpaceOnUse" x="67" y="101" width="55" height="48">
<path d="M67.3281 101.333H121.286V148.516H67.3281V101.333Z" fill="white"/>
</mask>
<g mask="url(#mask9_43_270)">
<mask id="mask10_43_270" style="mask-type:luminance" maskUnits="userSpaceOnUse" x="67" y="101" width="55" height="48">
<path d="M69.4633 108.901C65.0935 116.099 68.1717 123.104 72.0415 126.818L94.656 148.516L116.791 126.896C120.39 122.896 121.771 118.656 121.005 113.932C119.943 107.396 114.557 102.328 107.906 101.604C103.828 101.161 99.8852 102.318 96.8123 104.875C95.9842 105.563 95.2446 106.333 94.5988 107.167C93.8331 106.214 92.9321 105.344 91.9217 104.573C88.38 101.885 83.88 100.818 79.5571 101.646C75.4581 102.438 71.781 105.083 69.4633 108.901Z" fill="white"/>
</mask>
<g mask="url(#mask10_43_270)">
<mask id="mask11_43_270" style="mask-type:luminance" maskUnits="userSpaceOnUse" x="66" y="101" width="56" height="49">
<path d="M121.333 101.333H66.6665V149.333H121.333V101.333Z" fill="white"/>
</mask>
<g mask="url(#mask11_43_270)">
<mask id="mask12_43_270" style="mask-type:luminance" maskUnits="userSpaceOnUse" x="67" y="101" width="55" height="48">
<path d="M67.3281 101.333H121.286V148.516H67.3281V101.333Z" fill="white"/>
</mask>
<g mask="url(#mask12_43_270)">
<mask id="mask13_43_270" style="mask-type:luminance" maskUnits="userSpaceOnUse" x="67" y="101" width="55" height="48">
<path d="M69.4633 108.901C65.0935 116.099 68.1717 123.104 72.0415 126.818L94.656 148.516L116.791 126.896C120.39 122.896 121.771 118.656 121.005 113.932C119.943 107.396 114.557 102.328 107.906 101.604C103.828 101.161 99.8852 102.318 96.8123 104.875C95.9842 105.563 95.2446 106.333 94.5988 107.167C93.8331 106.214 92.9321 105.344 91.9217 104.573C88.38 101.885 83.88 100.818 79.5571 101.646C75.4581 102.438 71.781 105.083 69.4633 108.901Z" fill="white"/>
</mask>
<g mask="url(#mask13_43_270)">
<path d="M67.3281 101.37H121.286V148.516H67.3281V101.37Z" fill="white"/>
</g>
</g>
</g>
</g>
</g>
</svg>
